<svg width="47" height="47" viewBox="0 0 47 47" fill="none" xmlns="http://www.w3.org/2000/svg">
<path d="M24.4792 2.9375C21.0129 2.9375 17.9579 5.22875 16.9788 8.55792C15.9408 8.08792 14.8442 7.83333 13.7083 7.83333C11.6308 7.83333 9.63837 8.65863 8.16933 10.1277C6.70029 11.5967 5.875 13.5891 5.875 15.6667C5.875 19.2308 8.30333 22.3446 11.75 23.2454V37.2083H37.2083V23.2454C40.655 22.3446 43.0833 19.2308 43.0833 15.6667C43.0833 13.5891 42.258 11.5967 40.789 10.1277C39.32 8.65863 37.3275 7.83333 35.25 7.83333C34.1142 7.83333 33.0175 8.08792 31.9796 8.55792C31.0004 5.22875 27.9454 2.9375 24.4792 2.9375ZM23.5 20.5625H25.4583V34.2708H23.5V20.5625ZM17.625 24.4792H19.5833V34.2708H17.625V24.4792ZM29.375 24.4792H31.3333V34.2708H29.375V24.4792ZM11.75 39.1667V41.125C11.75 41.6444 11.9563 42.1425 12.3236 42.5098C12.6908 42.877 13.189 43.0833 13.7083 43.0833H35.25C35.7694 43.0833 36.2675 42.877 36.6348 42.5098C37.002 42.1425 37.2083 41.6444 37.2083 41.125V39.1667H11.75Z" fill="#FFFEFE"/>
</svg>
